<svg xmlns="http://www.w3.org/2000/svg" aria-hidden="true" style="position:absolute;width:0;height:0;overflow:hidden"><defs>
<symbol id="Property-1click" viewBox="0 0 32 32"><path fill="#4d5ae5" d="M4 1.25h24A2.75 2.75 0 0 1 30.75 4v24A2.75 2.75 0 0 1 28 30.75H4A2.75 2.75 0 0 1 1.25 28V4A2.75 2.75 0 0 1 4 1.25z" style="fill:var(--color1, #4d5ae5)"/><path fill="#f4f4fd" d="M22.891 8.51a1.832 1.832 0 0 1 2.558.02 1.855 1.855 0 0 1 .068 2.571L15.728 23.41a1.845 1.845 0 0 1-1.314.591 1.83 1.83 0 0 1-1.336-.542l-6.492-6.527a1.863 1.863 0 0 1-.451-2.046 1.85 1.85 0 0 1 1.017-1.022 1.823 1.823 0 0 1 1.438.026c.225.101.429.247.597.429l5.137 5.163 8.521-10.915a.628.628 0 0 1 .049-.054h-.002z" style="fill:var(--color2, #f4f4fd)"/><path fill="none" stroke="#4d5ae5" stroke-width="2.5" d="M4 1.25h24A2.75 2.75 0 0 1 30.75 4v24A2.75 2.75 0 0 1 28 30.75H4A2.75 2.75 0 0 1 1.25 28V4A2.75 2.75 0 0 1 4 1.25z" style="stroke:var(--color1, #4d5ae5)"/></symbol>
<symbol id="Frame-3" viewBox="0 0 32 32"><path fill="#fff" d="m32 2.667-32 15 10.227 3.156L26 8.5 14.002 21.988l.01.003-.012-.003v7.345l5.735-5.576L27 25.999l5-23.333z" style="fill:var(--color3, #fff)"/></symbol>
<symbol id="person-black-18dp-1" viewBox="0 0 32 32"><path d="M16 16c2.947 0 5.333-2.387 5.333-5.333S18.946 5.334 16 5.334c-2.947 0-5.333 2.387-5.333 5.333S13.054 16 16 16zm0 2.667c-3.56 0-10.667 1.787-10.667 5.333v1.333c0 .733.6 1.333 1.333 1.333h18.667c.733 0 1.333-.6 1.333-1.333V24c0-3.547-7.107-5.333-10.667-5.333z"/></symbol>
<symbol id="phone-black-18dp-1" viewBox="0 0 24 32"><path d="m19.635 18.487-2.451-.28a1.92 1.92 0 0 0-1.582.55l-1.775 1.775a14.514 14.514 0 0 1-6.359-6.359l1.785-1.785c.415-.415.618-.994.55-1.582l-.28-2.432a1.931 1.931 0 0 0-1.92-1.708H5.934c-1.09 0-1.997.907-1.93 1.997.511 8.24 7.102 14.821 15.332 15.332 1.09.068 1.997-.839 1.997-1.93v-1.669a1.913 1.913 0 0 0-1.698-1.911z"/></symbol>
<symbol id="Vector" viewBox="0 0 43 32"><path d="M37.333 0h-32c-2.2 0-3.98 1.8-3.98 4l-.02 24c0 2.2 1.8 4 4 4h32c2.2 0 4-1.8 4-4V4c0-2.2-1.8-4-4-4zm-.8 8.5-14.14 8.84c-.64.4-1.48.4-2.12 0L6.133 8.5c-.5-.32-.8-.86-.8-1.44 0-1.34 1.46-2.14 2.6-1.44l13.4 8.38 13.4-8.38c1.14-.7 2.6.1 2.6 1.44 0 .58-.3 1.12-.8 1.44z"/></symbol>
</defs></svg>